<?xml version="1.0" encoding="UTF-8"?>
<svg width="64px" height="64px" viewBox="0 0 64 64" version="1.1" xmlns="http://www.w3.org/2000/svg" xmlns:xlink="http://www.w3.org/1999/xlink">
    <!-- Generator: Sketch 62 (91390) - https://sketch.com -->
    <title>telegram-icon</title>
    <desc>Created with Sketch.</desc>
    <g id="telegram-icon" stroke="none" stroke-width="1" fill="none" fill-rule="evenodd">
        <path d="M32,61 C48.0200833,61 61,48.0200833 61,32 C61,15.9799167 48.0200833,3 32,3 C15.9799167,3 3,15.9799167 3,32 C3,48.0200833 15.9799167,61 32,61 Z M16.2699167,31.3716667 L44.23075,20.5909167 C45.5285,20.1220833 46.6619167,20.9075 46.2414167,22.8698333 L46.2438333,22.8674167 L41.483,45.2965 C41.1301667,46.8866667 40.18525,47.2733333 38.8633333,46.5241667 L31.6133333,41.1809167 L28.1164167,44.54975 C27.72975,44.9364167 27.4035,45.2626667 26.6543333,45.2626667 L27.1690833,37.8845833 L40.60575,25.7456667 C41.1905833,25.2309167 40.47525,24.9409167 39.7043333,25.45325 L23.0994167,35.90775 L15.94125,33.67475 C14.3873333,33.18175 14.3535,32.1208333 16.2699167,31.3716667 Z" fill="#4CBF4B" fill-rule="nonzero"></path>
    </g>
</svg>