<svg xmlns="http://www.w3.org/2000/svg" width="64" height="64"><path d="M20.87 56C43.5 56 55.894 37.532 55.894 21.516c0-.525 0-1.047-.036-1.567 2.41-1.716 4.49-3.84 6.142-6.274-2.247.98-4.63 1.623-7.07 1.907 2.57-1.515 4.493-3.897 5.412-6.704-2.416 1.412-5.06 2.407-7.817 2.942-3.816-3.995-9.88-4.972-14.8-2.385s-7.448 8.097-6.19 13.44c-9.898-.49-19.12-5.09-25.37-12.663C2.91 15.75 4.578 22.834 9.987 26.4c-1.96-.057-3.875-.577-5.587-1.517v.154c.002 5.77 4.132 10.738 9.876 11.88a12.48 12.48 0 0 1-5.558.208c1.613 4.937 6.234 8.32 11.5 8.417-4.36 3.373-9.744 5.204-15.288 5.198-.98-.002-1.958-.06-2.93-.175a35.25 35.25 0 0 0 18.869 5.435" fill="#4cbf4b" fill-rule="evenodd"/></svg>