<svg xmlns="http://www.w3.org/2000/svg" width="64" height="64"><path d="M33.285 51.948l-11.9-.217c-3.853-.076-7.715.075-11.492-.708-5.746-1.17-6.153-6.91-6.58-11.722-.587-6.767-.36-13.657.748-20.367.625-3.765 3.086-6.012 6.89-6.257 12.846-.887 25.777-.782 38.595-.368 1.354.038 2.717.245 4.05.48 6.59 1.15 6.75 7.654 7.177 13.128a74.2 74.2 0 0 1-.568 16.582c-.653 4.548-1.903 8.362-7.177 8.73-6.608.48-13.064.87-19.7.746 0-.03-.038-.03-.057-.03zM26.29 40.433l14.815-8.485-14.815-8.485v16.97z" fill="#4cbf4b" fill-rule="nonzero"/></svg>