<svg xmlns="http://www.w3.org/2000/svg" width="64" height="64"><path d="M51.305 4h-38.86C9.168 4 6.5 6.668 6.5 9.974v39.208c0 3.306 2.668 5.974 5.945 5.974H45.33l-1.537-5.365 3.712 3.45 3.51 3.248L57.25 62V9.974C57.25 6.668 54.582 4 51.305 4zM40.11 41.874l-1.914-2.35c3.8-1.073 5.25-3.45 5.25-3.45-1.19.783-2.32 1.334-3.335 1.71-1.45.61-2.842 1.015-4.205 1.247-2.784.522-5.336.377-7.51-.03a24.36 24.36 0 0 1-4.263-1.247c-.667-.26-1.392-.58-2.117-.986-.087-.058-.174-.087-.26-.145a.4.4 0 0 1-.116-.087l-.812-.493s1.392 2.32 5.075 3.422l-1.943 2.407c-6.41-.203-8.845-4.408-8.845-4.408 0-9.338 4.176-16.907 4.176-16.907 4.176-3.132 8.15-3.045 8.15-3.045l.3.348c-5.22 1.508-7.627 3.8-7.627 3.8s.638-.348 1.71-.84c3.103-1.363 5.568-1.74 6.583-1.827.174-.03.32-.058.493-.058a24.54 24.54 0 0 1 5.858-.058 23.64 23.64 0 0 1 8.729 2.784s-2.29-2.175-7.22-3.683l.406-.464s3.973-.087 8.15 3.045c0 0 4.176 7.57 4.176 16.907 0 0-2.465 4.205-8.874 4.408zM26.626 28.33c-1.653 0-2.958 1.45-2.958 3.22s1.334 3.22 2.958 3.22c1.653 0 2.958-1.45 2.958-3.22.03-1.77-1.305-3.22-2.958-3.22m10.585 0c-1.653 0-2.958 1.45-2.958 3.22s1.334 3.22 2.958 3.22c1.653 0 2.958-1.45 2.958-3.22s-1.305-3.22-2.958-3.22" fill="#2e3137" fill-rule="nonzero"/></svg>