<svg xmlns="http://www.w3.org/2000/svg" width="64" height="64"><path d="M24.104 11l.497.6c-8.938 2.6-13.06 6.55-13.06 6.55s1.092-.6 2.93-1.45c5.313-2.35 9.535-3 11.273-3.15.298-.05.546-.1.844-.1a41.73 41.73 0 0 1 10.031-.1 40.28 40.28 0 0 1 14.947 4.8S47.642 14.4 39.2 11.8l.695-.8s6.803-.15 13.954 5.25c0 0 7.15 13.05 7.15 29.15 0 0-4.22 7.25-15.195 7.6l-3.277-4.05C49.033 47.1 51.515 43 51.515 43c-2.036 1.35-3.973 2.3-5.71 2.95-2.483 1.05-4.866 1.75-7.2 2.15-4.767.9-9.137.65-12.86-.05-2.83-.55-5.264-1.35-7.3-2.15-1.142-.45-2.384-1-3.625-1.7-.15-.1-.298-.15-.447-.25-.1-.05-.15-.1-.2-.15-.894-.5-1.4-.85-1.4-.85s2.384 4 8.7 5.9L18.145 53C7.17 52.65 3 45.4 3 45.4c0-16.1 7.15-29.15 7.15-29.15C17.3 10.85 24.104 11 24.104 11zm-1.4 18.65l-.21.005c-2.73.12-4.854 2.57-4.854 5.545 0 3.05 2.284 5.55 5.065 5.55 2.83 0 5.065-2.5 5.065-5.55.05-3.05-2.234-5.55-5.065-5.55zm18.125 0c-2.83 0-5.065 2.5-5.065 5.55s2.285 5.55 5.065 5.55c2.83 0 5.065-2.5 5.065-5.55s-2.234-5.55-5.065-5.55z" fill="#2E3137" fill-rule="nonzero"/></svg>