<svg xmlns="http://www.w3.org/2000/svg" width="64" height="64"><path d="M31.998 3C17.775 3.002 5.653 13.58 3.377 27.977S9.34 56.338 22.834 60.95c1.45.273 1.98-.645 1.98-1.433l-.04-5.057c-8.066 1.797-9.767-3.986-9.767-3.986-1.32-3.435-3.22-4.35-3.22-4.35-2.633-1.845.2-1.808.2-1.808 2.9.2 4.44 3.064 4.44 3.064 2.586 4.544 6.787 3.232 8.44 2.47.264-1.922 1.013-3.232 1.84-3.975-6.44-.75-13.208-3.3-13.208-14.696a11.66 11.66 0 0 1 2.984-7.979c-.298-.752-1.293-3.775.284-7.87 0 0 2.435-.8 7.974 3.048a26.83 26.83 0 0 1 14.519 0c5.536-3.848 7.966-3.048 7.966-3.048 1.582 4.094.587 7.117.29 7.87 1.858 2.08 2.98 4.733 2.98 7.98 0 11.423-6.78 13.936-13.24 14.672 1.04.918 1.97 2.733 1.97 5.506l-.036 8.157c0 .795.522 1.72 1.994 1.43 13.487-4.62 21.72-18.586 19.437-32.978S46.22 3 32 3z" fill="#4cbf4b" fill-rule="evenodd"/></svg>