<svg xmlns="http://www.w3.org/2000/svg" width="64" height="64"><path d="M32.006 17.13c-8.23 0-14.867 6.64-14.867 14.87s6.638 14.87 14.867 14.87S46.874 40.23 46.874 32s-6.638-14.87-14.867-14.87zm0 24.538c-5.318 0-9.666-4.336-9.666-9.668a9.68 9.68 0 0 1 9.666-9.668A9.68 9.68 0 0 1 41.672 32c0 5.332-4.348 9.668-9.666 9.668zM50.95 16.52a3.46 3.46 0 1 1-6.935 0 3.47 3.47 0 0 1 3.468-3.468 3.47 3.47 0 0 1 3.468 3.468zm9.847 3.52c-.22-4.646-1.28-8.762-4.684-12.153-3.4-3.39-7.505-4.452-12.15-4.685-4.788-.272-19.137-.272-23.925 0-4.632.22-8.747 1.28-12.15 4.672s-4.45 7.506-4.684 12.153c-.272 4.79-.272 19.14 0 23.93.22 4.646 1.28 8.762 4.684 12.153s7.505 4.452 12.15 4.685c4.788.272 19.137.272 23.925 0 4.645-.22 8.76-1.28 12.15-4.685 3.4-3.39 4.45-7.506 4.684-12.153.272-4.79.272-19.128 0-23.917zM54.61 49.097c-1.01 2.537-2.963 4.49-5.512 5.513-3.817 1.514-12.875 1.165-17.093 1.165s-13.29.336-17.093-1.165c-2.536-1.01-4.5-2.964-5.512-5.513C7.888 45.28 8.237 36.22 8.237 32S7.9 18.708 9.402 14.903c1.01-2.537 2.963-4.49 5.512-5.513 3.817-1.514 12.875-1.165 17.093-1.165S45.295 7.89 49.1 9.4c2.536 1.01 4.5 2.964 5.512 5.513C56.125 18.72 55.776 27.78 55.776 32s.35 13.292-1.165 17.097z" fill="#4cbf4b" fill-rule="nonzero"/></svg>