<svg xmlns="http://www.w3.org/2000/svg" width="64" height="64"><path d="M61 3v58H3V3h58zM24.008 16.087H12.712v.655l3.638 4.383a1.51 1.51 0 0 1 .491 1.273V39.62a1.98 1.98 0 0 1-.528 1.709l-4.093 4.965v.655h11.606v-.655l-4.093-4.965c-.44-.453-.65-1.083-.564-1.71V24.725l10.187 22.223h1.182l8.75-22.223v17.713c0 .473 0 .564-.31.873l-3.147 3.055v.655h15.28v-.655l-3.038-2.982a.91.91 0 0 1-.346-.873V20.597a.91.91 0 0 1 .346-.873l3.11-2.982v-.655h-10.77l-7.676 19.15-8.73-19.15z" fill="#4cbf4b" fill-rule="evenodd"/></svg>