<svg xmlns="http://www.w3.org/2000/svg" width="64" height="64"><path d="M32 3c16.016 0 29 12.984 29 29S48.016 61 32 61 3 48.016 3 32 15.984 3 32 3zm1.298 12.276v.014l-2.14 10.063c-4.037.065-7.965 1.305-11.3 3.568a4.23 4.23 0 1 0-5.796 6.171 4.1 4.1 0 0 0 1.139.764 9.42 9.42 0 0 0 0 1.276c0 6.495 7.57 11.78 16.904 11.78s16.904-5.277 16.904-11.78a9.42 9.42 0 0 0 0-1.276C50.454 35.13 51.37 33.63 51.34 32c-.087-2.336-2.047-4.16-4.4-4.08a4.25 4.25 0 0 0-2.775 1.175c-3.302-2.25-7.18-3.482-11.166-3.568l1.88-9.047 6.207 1.305a2.9 2.9 0 0 0 5.767-.62 2.9 2.9 0 0 0-3.193-2.573 2.87 2.87 0 0 0-2.191 1.42l-7.108-1.42a.9.9 0 0 0-1.074.685zm-7.338 26.5c1.744 1.276 3.87 1.925 6.034 1.824 2.163.115 4.296-.505 6.062-1.766.317-.3.836-.303 1.146.014.282.288.3.743.064 1.057l-.08.09v-.115c-2.062 1.55-4.585 2.343-7.165 2.235-2.58.108-5.104-.685-7.165-2.235-.274-.332-.223-.83.108-1.103.288-.238.7-.238.995 0zM25.246 32a2.91 2.91 0 0 1 2.905 2.905 2.91 2.91 0 0 1-2.905 2.905c-1.608-.014-2.905-1.305-2.905-2.905A2.91 2.91 0 0 1 25.246 32zm13.437 0a2.91 2.91 0 0 1 2.905 2.905 2.91 2.91 0 0 1-2.905 2.905c-1.608-.014-2.905-1.305-2.905-2.905A2.91 2.91 0 0 1 38.682 32z" fill="#4cbf4b" fill-rule="nonzero"/></svg>