<svg xmlns="http://www.w3.org/2000/svg" viewBox="0 0 290.5 46.5" fill="#282A2E"><path d="M128.6 25.5c1 1.4 1.5 3.2 1.5 4.9 0 1.6-.4 3.1-1.2 4.5a7.98 7.98 0 0 1-3.3 3A10.39 10.39 0 0 1 121 39h-13.6V6.9h12c1.6 0 3.2.3 4.6 1.1 1.4.7 2.5 1.8 3.3 3.1.8 1.4 1.2 3 1.2 4.6 0 1.5-.3 3-1.1 4.3-.7 1.2-1.8 2.2-3 2.8a7.53 7.53 0 0 1 4.2 2.7zm-5.5-11.8c-.4-.7-1-1.2-1.8-1.6s-1.6-.6-2.4-.6h-6.7v9.3h6.6c.9 0 1.7-.2 2.4-.6s1.3-1 1.8-1.7c.4-.7.7-1.6.7-2.4 0-.9-.2-1.7-.6-2.4zm-.3 20.2c.7-.4 1.3-1 1.8-1.7.4-.7.7-1.5.6-2.4 0-.8-.2-1.7-.7-2.4-.4-.7-1-1.3-1.8-1.7a5.42 5.42 0 0 0-2.5-.6h-8v9.3h8.1c.9.1 1.7-.1 2.5-.5zm30.7.1h-14.2l-1.8 5.1h-5.4l12.8-32.2h3.1l12.8 32.2h-5.4l-1.9-5.1zm-1.5-4.4l-5.5-15.2-5.5 15.2h11zm38.2-22.7v32.2h-2l-18.8-21.8v21.8h-4.9V6.9h1.9l18.8 21.7V6.9h5zM215.3 34h-14.2l-1.9 5.1h-5.4l12.8-32.2h3.1l12.9 32.2h-5.4l-1.9-5.1zm-1.6-4.4l-5.5-15.1-5.5 15.2 11-.1zm38.2-22.7v32.2h-2l-18.7-21.8v21.8h-4.9V6.9h1.9L247 28.6V6.9h4.9zm13.7 30.4a15.72 15.72 0 0 1-6-6 16.25 16.25 0 0 1 0-16.5 15.72 15.72 0 0 1 6-6c5.1-3 11.4-3 16.6 0a15.72 15.72 0 0 1 6 6 16.25 16.25 0 0 1 0 16.5 15.72 15.72 0 0 1-6 6c-5.2 2.9-11.5 2.9-16.6 0zm14.1-4.2a11.63 11.63 0 0 0 5.8-10.1c0-6.5-5.3-11.7-11.8-11.7a11.94 11.94 0 0 0-5.8 1.5 11.63 11.63 0 0 0-5.8 10.1c0 6.5 5.3 11.7 11.8 11.7 2.1 0 4.1-.5 5.8-1.5zM62.8 45.7c-27.5 3.5-40.2-20.8-38-23.2 1.5-1.6 3.8-1.7 5.8-1.7 9.2-.2 22.2 10.5 24.9 10.5 5.1-.1 12.8-8.3 17.9-15 2.1-2.8 15.3-7.1 13.8.3-4.7 23.9-20.9 28.6-24.4 29.1zM24.5.3c27.5-3.5 40.2 20.8 38 23.2-1.5 1.6-3.8 1.7-5.8 1.7-9.2.2-22.2-10.5-24.9-10.5-5.1.1-12.8 8.3-17.9 15-2.1 2.8-15.3 7.1-13.8-.3C4.8 5.4 21 .7 24.5.3z"/></svg>